<svg xmlns="http://www.w3.org/2000/svg" viewBox="0 0 321 321"><defs><style>.cls-1{fill:#512d0c;}</style></defs><title>quill</title><g id="Layer_1" data-name="Layer 1"><path class="cls-1" d="M71,234.46c-15.93-46.72,3.75-68.68,37.3-88.8,2.45-1.47-7.35,32.39-4.74,31,12.57-6.88.27-33.7,63.1-59.3,1.91-.78-3.82,23.1-2,22.3C193,93,179,135.39,219.56,90.74c3.19-1.8-4.27,16.8-1.1,14.91,11.51-21,23.92-19.45,53.29-51.46,2.3-2.25-2.65,20.1-.24,17.72,17.66-31.67,19-23.55,41.61-70.83-2.36,95.78-22.39,95.55-50.94,126.24-1.35,2.28,22.75-11.7,21.31-9.45-38.57,60.61-56,40.29-71,55.73-1.57,1.62,28.79-3.51,27.19-1.93-71,70.08-74.57,34.11-104.08,48.53-4.36,2.14,17.63,11.93,13.32,13.69-27,11-42.78,18.52-63.66,11.62-3.77,3.87,9.22,7,14.32,13.73-1.5-.32-15.69-1.48-15.47-1.2,1.12,1.4,5.92,14,6.14,14.32s-10-10.94-11.46-11.69c-.21-.11-3.32,16.93-3.54,16.82s-3-22.15-4.78-20.22C51.17,277.81,20,311.37,8.84,316.7c6.37-23,32.57-49.87,49.11-66.22,1.25-1-18.52-14.57-19.56-15.41.07-.06,17.21,2.7,18.78,2.56.52-.37-10.44-14.11-10-13.63,2.25,2.64,12.41,5.32,13.12,4.31.29-1.75.34-13.58.41-13.63S67.67,237.13,71,234.46Zm19.65-2.13C114.08,211.56,253.86,116,276.8,84.47,241.37,125,133,179.83,73.92,239.85c-17.27,13.62-36.93,32-45.39,52.58C31.15,293.51,78.77,242.82,90.63,232.33Z"/><path class="cls-1" d="M7.88,318.87c71-8.09,95.82-8,165.86-42.75,69.45-34.44,95.53-47,102.23-33.49,3.31,6.66-13.55,20-14.33,28.39-2.1,23,22,22.93,35.4,19.61l1.63,6.63c-21.66,5.35-45.81-5.06-43.82-26.85.69-7.47,17.45-19.8,15-24.76-5-10.11-28.55,4.59-93.09,36.6C102,319.32,84.19,322.25,7.88,318.87Z"/></g></svg>