<?xml version="1.0" encoding="iso-8859-1"?>
<!-- Generator: Adobe Illustrator 16.0.0, SVG Export Plug-In . SVG Version: 6.00 Build 0)  -->
<!DOCTYPE svg PUBLIC "-//W3C//DTD SVG 1.1//EN" "http://www.w3.org/Graphics/SVG/1.1/DTD/svg11.dtd">
<svg version="1.1" id="Capa_1" xmlns="http://www.w3.org/2000/svg" xmlns:xlink="http://www.w3.org/1999/xlink" x="0px" y="0px"
	 width="32px" height="32px" viewBox="0 0 32 32" style="enable-background:new 0 0 32 32;" xml:space="preserve">
<g>
	<path d="M28.519,24.994L28.275,7.011c0.264-0.122,0.472-0.253,0.599-0.397c0.987-1.125,1.479-5.711-1.332-6.452
		c-2.811-0.741-2.607,2.595-2.603,2.966c1.527-1.093,1.802,0.117,1.509,1.112c-0.292,0.994-6.333-0.917-8.845,1.385
		c-2.004,1.838-3.208,6.09-3.608,7.729l-6.86-6.499l2.649-0.979L0.992,2.807l3.33,8.637l1.033-3.332l6.67,6.354
		c-1.95,0.545-4.966,1.601-6.455,3.223c-2.302,2.512-0.39,8.553-1.385,8.846s-2.205,0.019-1.112-1.511
		c-0.371-0.007-3.707-0.208-2.966,2.603c0.635,2.406,4.083,2.391,5.769,1.717h20.182l3.029,2.603l0.563-2.444L32,28.977
		L28.519,24.994z M20.937,8.953c0.879-0.618,4-0.972,6.097-1.525l0.229,17.2l-1.662-0.282l-9.302-8.811
		C17.215,14.028,19.91,9.672,20.937,8.953z M7.066,28.092c0.748-1.928,1.109-6.043,1.834-7.075c0.606-0.863,3.812-2.924,5.705-4.097
		l9.625,9.168l0.274,1.921l0.099,0.083H7.066z"/>
</g>
<g>
</g>
<g>
</g>
<g>
</g>
<g>
</g>
<g>
</g>
<g>
</g>
<g>
</g>
<g>
</g>
<g>
</g>
<g>
</g>
<g>
</g>
<g>
</g>
<g>
</g>
<g>
</g>
<g>
</g>
</svg>
